<?xml version="1.0" encoding="UTF-8" standalone="no"?>
<svg
   viewBox="0 0 16 16"
   version="1.1"
   id="svg3"
   sodipodi:docname="verify-warning.svg"
   inkscape:version="1.4.3 (0d15f75, 2025-12-25)"
   xmlns:inkscape="http://www.inkscape.org/namespaces/inkscape"
   xmlns:sodipodi="http://sodipodi.sourceforge.net/DTD/sodipodi-0.dtd"
   xmlns="http://www.w3.org/2000/svg"
   xmlns:svg="http://www.w3.org/2000/svg">
  <defs
     id="defs3" />
  <sodipodi:namedview
     id="namedview3"
     pagecolor="#ffffff"
     bordercolor="#000000"
     borderopacity="0.25"
     inkscape:showpageshadow="2"
     inkscape:pageopacity="0.0"
     inkscape:pagecheckerboard="0"
     inkscape:deskcolor="#d1d1d1"
     inkscape:zoom="24.81"
     inkscape:cx="8.0008061"
     inkscape:cy="8.0209593"
     inkscape:window-width="982"
     inkscape:window-height="1131"
     inkscape:window-x="938"
     inkscape:window-y="32"
     inkscape:window-maximized="0"
     inkscape:current-layer="svg3" />
  <g
     fill="#ff9601"
     id="g3">
    <path
       class="warning"
       d="M 8.0123,0 C 7.26714,0 6.6321,0.39746 6.2955,0.99366 c -0.00391,-2.274e-5 -0.00781,-2.274e-5 -0.011719,0 l -6.0312,11.129 c -0.004929,0.03294 -0.044057,0.09937 -0.044057,0.09937 -0.30974,0.59619 -0.28662,1.2917 0.11046,1.888 0.35293,0.49683 1.0401,0.89429 1.6543,0.89429 h 12.107 c 0.66341,0 1.3195,-0.39746 1.668,-0.99366 0.26446,-0.39746 0.27792,-0.89429 0.18164,-1.3911 -0.0014,-0.13709 -0.03131,-0.27242 -0.08789,-0.39746 -0.0093,-0.03368 -0.02038,-0.06685 -0.0332,-0.09937 l -6.0762,-11.129 c -0.00195,-5.69e-6 -0.00391,-5.69e-6 -0.00586,0 C 9.377624,0.39753 8.691074,7e-5 8.011974,7e-5 Z m 0,0.99366 c 0.35196,0 0.66752,0.19874 0.8418,0.49683 l 6.0762,11.129 c 0.13952,0.29809 0.13811,0.5962 -0.03906,0.89429 -0.14191,0.29809 -0.4591,0.49683 -0.81055,0.49683 h -12.107 c -0.3524,0 -0.63384,-0.19874 -0.80859,-0.39746 C 0.99034,13.31506 0.99192,12.9176 1.13385,12.61949 l 6.0312,-11.129 C 7.34224,1.1924 7.66029,0.99366 8.01271,0.99366 Z"
       id="path1"
       style="display:inline;fill:#f6d32d;fill-opacity:1.0" />
    <path
       class="warning"
       d="m8 4c0.554 0 1 0.446 1 1v4c0 0.554-0.446 1-1 1s-1-0.446-1-1v-4c0-0.554 0.446-1 1-1z"
       id="path2"
       style="fill:#a51d2d;fill-opacity:1.0" />
    <path
       class="warning"
       d="m9 12a1 1 0 0 1-1 1 1 1 0 0 1-1-1 1 1 0 0 1 1-1 1 1 0 0 1 1 1z"
       id="path3"
       style="fill:#a51d2d;fill-opacity:1.0" />
  </g>
  <path
     style="fill:#f6d32d;stroke-width:0.0403063;fill-opacity:1.0"
     d="M 1.7936316,13.968948 C 1.187734,13.822388 0.913124,13.317322 1.1236981,12.7368 1.2429416,12.408062 7.198915,1.4635674 7.3392422,1.3153266 7.7322096,0.90019797 8.4173442,0.94063873 8.7578045,1.3990586 8.8119605,1.4719786 10.232715,4.0528012 11.915036,7.13422 l 3.058765,5.60258 v 0.303219 c 0,0.27311 -0.01289,0.323138 -0.129789,0.503829 -0.152831,0.236226 -0.325516,0.361983 -0.575572,0.419158 -0.209594,0.04792 -12.2774875,0.05367 -12.4748084,0.0059 z m 6.6578638,-1.054313 c 0.3671817,-0.17775 0.6160185,-0.641223 0.5574268,-1.03824 -0.036062,-0.244355 -0.2006896,-0.544539 -0.3690733,-0.672972 -0.3749005,-0.28595 -0.9090831,-0.286917 -1.2822088,-0.0023 -0.1600025,0.12204 -0.3377876,0.448836 -0.3693156,0.678858 -0.054691,0.39901 0.1904937,0.851547 0.5606352,1.034765 0.2345163,0.116084 0.6626393,0.116041 0.9025357,-9.1e-5 z M 8.3456509,9.9548722 C 8.5975365,9.866002 8.7526747,9.7322846 8.888578,9.4869105 L 9.0084643,9.2704555 V 6.9931479 c 0,-2.2577308 -7.493e-4,-2.2786935 -0.087157,-2.4385328 -0.2007081,-0.3712744 -0.5105534,-0.559658 -0.920501,-0.559658 -0.4099476,0 -0.7197928,0.1883836 -0.920501,0.559658 -0.086408,0.1598393 -0.087157,0.180802 -0.087157,2.4385328 0,2.183443 0.00327,2.2838976 0.079276,2.4371963 0.2360355,0.4760504 0.7779109,0.6992858 1.2732266,0.524528 z"
     id="path4" />
</svg>
