<?xml version="1.0" encoding="UTF-8" standalone="no"?>
<svg
   height="2500"
   width="2500"
   viewBox="0 0 512 512"
   version="1.1"
   id="svg2"
   sodipodi:docname="verify-ok.svg"
   inkscape:version="1.4.3 (0d15f75, 2025-12-25)"
   xmlns:inkscape="http://www.inkscape.org/namespaces/inkscape"
   xmlns:sodipodi="http://sodipodi.sourceforge.net/DTD/sodipodi-0.dtd"
   xmlns="http://www.w3.org/2000/svg"
   xmlns:svg="http://www.w3.org/2000/svg">
  <defs
     id="defs2" />
  <sodipodi:namedview
     id="namedview2"
     pagecolor="#ffffff"
     bordercolor="#000000"
     borderopacity="0.25"
     inkscape:showpageshadow="2"
     inkscape:pageopacity="0.0"
     inkscape:pagecheckerboard="0"
     inkscape:deskcolor="#d1d1d1"
     inkscape:zoom="0.258"
     inkscape:cx="1246.124"
     inkscape:cy="1250"
     inkscape:window-width="1440"
     inkscape:window-height="900"
     inkscape:window-x="240"
     inkscape:window-y="148"
     inkscape:window-maximized="0"
     inkscape:current-layer="svg2" />
  <g
     fill="none"
     fill-rule="evenodd"
     id="g2">
    <path
       d="M256 472.153L176.892 512l-41.725-81.129-86.275-16.654 11.596-91.422L0 256l60.488-66.795-11.596-91.422 86.275-16.654L176.892 0 256 39.847 335.108 0l41.725 81.129 86.275 16.654-11.596 91.422L512 256l-60.488 66.795 11.596 91.422-86.275 16.654L335.108 512z"
       fill="#4285f4"
       id="path1"
       style="fill:#3584e4;fill-opacity:1.0" />
    <path
       d="M211.824 284.5L171 243.678l-36 36 40.824 40.824-.063.062 36 36 .063-.062.062.062 36-36-.062-.062L376.324 192l-36-36z"
       fill="#fff"
       id="path2" />
  </g>
</svg>
